<?xml version="1.0" standalone="no"?><!DOCTYPE svg PUBLIC "-//W3C//DTD SVG 1.1//EN" "http://www.w3.org/Graphics/SVG/1.1/DTD/svg11.dtd"><svg t="1618828983922" class="icon" viewBox="0 0 1024 1024" version="1.1" xmlns="http://www.w3.org/2000/svg" p-id="4160" xmlns:xlink="http://www.w3.org/1999/xlink" width="200" height="200"><defs><style type="text/css"></style></defs><path d="M842.1888 913.7664H181.6064c-20.7872 0-40.192-8.8576-53.248-24.2688-12.1344-14.3872-17.3568-33.0752-14.2336-51.3024L190.464 387.84c5.376-31.744 33.7408-54.784 67.4816-54.784h507.904c33.6896 0 62.1056 23.04 67.4816 54.784l76.3392 450.304c3.072 18.2272-2.0992 36.9664-14.2336 51.3024-13.056 15.4624-32.4608 24.32-53.248 24.32zM257.9456 379.136c-10.9568 0-20.48 7.0656-22.016 16.384L159.5904 845.824c-1.0752 6.2976 1.5872 11.008 3.9936 13.8752 4.2496 5.0688 10.8544 7.936 18.0224 7.936h660.5824c7.2192 0 13.7728-2.9184 18.0224-7.936 2.4064-2.8672 5.0688-7.5776 3.9936-13.8752l-76.3392-450.304c-1.5872-9.3696-11.0592-16.384-22.0672-16.384H257.9456z" fill="#888888" p-id="4161"></path><path d="M651.8272 504.7296c-12.7488 0-23.04-10.2912-23.04-23.04V262.8096c0-64.4608-52.4288-116.8896-116.8896-116.8896S395.008 198.3488 395.008 262.8096v218.88c0 12.7488-10.2912 23.04-23.04 23.04s-23.04-10.2912-23.04-23.04V262.8096c0-89.856 73.1136-162.9696 162.9696-162.9696s162.9696 73.1136 162.9696 162.9696v218.88a23.04 23.04 0 0 1-23.04 23.04zM659.9168 609.6384H363.8784c-12.7488 0-23.04-10.2912-23.04-23.04s10.2912-23.04 23.04-23.04h295.9872c12.7488 0 23.04 10.2912 23.04 23.04s-10.2912 23.04-22.9888 23.04z" fill="#888888" p-id="4162"></path></svg>