<?xml version="1.0" standalone="no"?><!DOCTYPE svg PUBLIC "-//W3C//DTD SVG 1.1//EN" "http://www.w3.org/Graphics/SVG/1.1/DTD/svg11.dtd"><svg t="1618827805048" class="icon" viewBox="0 0 1024 1024" version="1.1" xmlns="http://www.w3.org/2000/svg" p-id="3291" xmlns:xlink="http://www.w3.org/1999/xlink" width="200" height="200"><defs><style type="text/css"></style></defs><path d="M518.2464 899.1232c-66.56 0-121.856-48.9984-131.7376-112.8448H221.2352c-53.0432 0-96.1536-43.1104-96.1536-96.1536s43.1104-96.1536 96.1536-96.1536h16.6912V401.7152c0-152.7808 124.2624-277.0432 277.0432-277.0432s277.0432 124.2624 277.0432 277.0432v192.256h23.2448c53.0432 0 96.1536 43.1104 96.1536 96.1536s-43.1104 96.1536-96.1536 96.1536H734.72c-11.3152 0-20.48-9.1648-20.48-20.48s9.1648-20.48 20.48-20.48h80.5376c30.4128 0 55.1936-24.7808 55.1936-55.1936s-24.7808-55.1936-55.1936-55.1936h-64.2048V401.7152c0-130.2016-105.8816-236.0832-236.0832-236.0832S278.8864 271.5136 278.8864 401.7152v233.216H221.2352c-30.4128 0-55.1936 24.7808-55.1936 55.1936s24.7808 55.1936 55.1936 55.1936h204.6464v20.48c0 50.944 41.4208 92.3648 92.3648 92.3648s92.3648-41.4208 92.3648-92.3648c0-11.3152 9.1648-20.48 20.48-20.48s20.48 9.1648 20.48 20.48c0 73.5232-59.8016 133.3248-133.3248 133.3248z" fill="#888888" p-id="3292"></path></svg>