<?xml version="1.0" standalone="no"?><!DOCTYPE svg PUBLIC "-//W3C//DTD SVG 1.1//EN" "http://www.w3.org/Graphics/SVG/1.1/DTD/svg11.dtd"><svg t="1618825181365" class="icon" viewBox="0 0 1024 1024" version="1.1" xmlns="http://www.w3.org/2000/svg" p-id="1429" xmlns:xlink="http://www.w3.org/1999/xlink" width="200" height="200"><defs><style type="text/css"></style></defs><path d="M718.77 960H305.23c-66.51 0-120.62-54.11-120.62-120.62V184.62C184.62 118.11 238.72 64 305.23 64h413.54c66.5 0 120.62 54.11 120.62 120.62v654.77C839.38 905.89 785.27 960 718.77 960zM305.23 98.46c-47.5 0-86.15 38.65-86.15 86.15v654.77c0 47.5 38.65 86.15 86.15 86.15h413.54c47.5 0 86.15-38.65 86.15-86.15V184.62c0-47.5-38.65-86.15-86.15-86.15H305.23zM512 886.05c-38 0-68.92-30.92-68.92-68.93 0-38 30.92-68.91 68.92-68.91 38.01 0 68.92 30.91 68.92 68.91 0 38.01-30.91 68.93-68.92 68.93z m0-103.39c-19.01 0-34.46 15.46-34.46 34.45 0 19.01 15.46 34.47 34.46 34.47s34.46-15.46 34.46-34.47c0-18.99-15.46-34.45-34.46-34.45z m103.38-583.45H408.62c-9.52 0-17.23-7.72-17.23-17.23s7.72-17.23 17.23-17.23h206.77c9.52 0 17.23 7.72 17.23 17.23s-7.71 17.23-17.24 17.23z" p-id="1430" fill="#ffffff"></path></svg>