<?xml version="1.0" standalone="no"?><!DOCTYPE svg PUBLIC "-//W3C//DTD SVG 1.1//EN" "http://www.w3.org/Graphics/SVG/1.1/DTD/svg11.dtd"><svg t="1618829107717" class="icon" viewBox="0 0 1024 1024" version="1.1" xmlns="http://www.w3.org/2000/svg" p-id="4992" xmlns:xlink="http://www.w3.org/1999/xlink" width="200" height="200"><defs><style type="text/css"></style></defs><path d="M514.9696 910.1312c-38.4 0-75.2128-16.384-100.9152-44.9024l-290.816-322.816c-31.4368-34.9184-42.6496-84.48-29.3376-129.4848l49.408-190.72c15.2064-58.624 68.096-99.584 128.6144-99.584h485.0176c60.5696 0 113.4592 40.96 128.6144 99.5328l49.408 190.8224c13.312 44.9536 2.1504 94.464-29.184 129.3312l-289.792 322.7136a135.92576 135.92576 0 0 1-100.9664 45.056c0 0.0512-0.0512 0.0512-0.0512 0.0512zM271.9232 173.7728c-37.2224 0-69.7344 25.1904-79.0528 61.184l-49.7664 192.1024c-8.448 28.16-1.4848 59.1872 18.176 80.9984l290.816 322.816c16.2816 18.0736 38.6048 28.0064 62.8736 28.0064h0.0512c24.32 0 46.6432-9.984 62.8736-28.1088l289.792-322.7136c19.6096-21.8112 26.5216-52.8384 18.0736-80.896l-0.256-0.9728-49.5616-191.2832a81.61792 81.61792 0 0 0-79.0528-61.184H271.9232z" fill="#888888" p-id="4993"></path><path d="M526.08 594.3296c-20.2752 0-40.6016-7.7312-56.0128-23.1424L350.4128 451.4816a25.61536 25.61536 0 0 1 0-36.1984 25.61536 25.61536 0 0 1 36.1984 0l119.6544 119.7056a28.14976 28.14976 0 0 0 39.68 0L665.6 415.2832a25.61536 25.61536 0 0 1 36.1984 0 25.61536 25.61536 0 0 1 0 36.1984l-119.7056 119.7056c-15.4112 15.4624-35.6864 23.1424-56.0128 23.1424z" fill="#888888" p-id="4994"></path></svg>